<svg width="160" height="40" viewBox="0 0 160 40" fill="none" xmlns="http://www.w3.org/2000/svg">
<path d="M67.0188 20.0021C67.0188 20.7494 66.9414 21.466 66.7866 22.1517C66.6318 22.8297 66.4074 23.4653 66.1133 24.0586C65.8269 24.6519 65.4748 25.1989 65.0568 25.6997C64.6389 26.1928 64.163 26.6281 63.6289 27.0056L67.8894 31.6285H65.3122C64.9408 31.6285 64.6041 31.5784 64.3023 31.4782C64.0082 31.3781 63.7373 31.1932 63.4896 30.9235L61.0285 28.2191C60.6338 28.327 60.2275 28.4079 59.8096 28.4618C59.3994 28.5158 58.9699 28.5427 58.521 28.5427C57.2517 28.5427 56.0908 28.3309 55.0383 27.9071C53.9935 27.4756 53.0957 26.8785 52.345 26.1157C51.602 25.353 51.0255 24.4515 50.6153 23.4114C50.2051 22.3636 50 21.2271 50 20.0021C50 18.777 50.2051 17.6444 50.6153 16.6043C51.0255 15.5564 51.602 14.6511 52.345 13.8884C53.0957 13.1256 53.9935 12.5323 55.0383 12.1086C56.0908 11.6771 57.2517 11.4614 58.521 11.4614C59.7902 11.4614 60.9473 11.6771 61.9921 12.1086C63.0369 12.5401 63.9308 13.1372 64.6737 13.8999C65.4167 14.655 65.9933 15.5564 66.4035 16.6043C66.8137 17.6444 67.0188 18.777 67.0188 20.0021ZM63.8147 20.0021C63.8147 19.0852 63.6909 18.2646 63.4432 17.5404C63.2033 16.8085 62.855 16.1882 62.3984 15.6797C61.9418 15.1712 61.3845 14.7821 60.7267 14.5125C60.0766 14.2428 59.3414 14.108 58.521 14.108C57.7006 14.108 56.9615 14.2428 56.3037 14.5125C55.6458 14.7821 55.0847 15.1712 54.6204 15.6797C54.1638 16.1882 53.8116 16.8085 53.564 17.5404C53.3163 18.2646 53.1925 19.0852 53.1925 20.0021C53.1925 20.9189 53.3163 21.7433 53.564 22.4753C53.8116 23.1995 54.1638 23.8159 54.6204 24.3244C55.0847 24.8252 55.6458 25.2104 56.3037 25.4801C56.9615 25.7498 57.7006 25.8846 58.521 25.8846C59.3414 25.8846 60.0766 25.7498 60.7267 25.4801C61.3845 25.2104 61.9418 24.8252 62.3984 24.3244C62.855 23.8159 63.2033 23.1995 63.4432 22.4753C63.6909 21.7433 63.8147 20.9189 63.8147 20.0021Z" fill="#fff"/>
<path d="M71.0193 16.5003V24.0355C71.0193 24.7597 71.1857 25.3222 71.5185 25.7228C71.859 26.1157 72.366 26.3122 73.0393 26.3122C73.5346 26.3122 73.999 26.2044 74.4324 25.9886C74.8658 25.7652 75.2759 25.4608 75.6629 25.0756V16.5003H78.5303V28.3578H76.7774C76.4059 28.3578 76.1621 28.1845 76.046 27.8377L75.8487 26.8901C75.601 27.1366 75.3456 27.3639 75.0825 27.5719C74.8193 27.7723 74.5368 27.9456 74.235 28.092C73.9409 28.2307 73.6197 28.3386 73.2715 28.4156C72.9309 28.5004 72.5633 28.5427 72.1686 28.5427C71.5185 28.5427 70.9419 28.4349 70.4389 28.2191C69.9436 27.9957 69.5256 27.6837 69.1851 27.283C68.8446 26.8824 68.5853 26.4085 68.4073 25.8615C68.237 25.3068 68.1519 24.6981 68.1519 24.0355V16.5003H71.0193Z" fill="#fff"/>
<path d="M83.7163 16.5003V28.3578H80.8489V16.5003H83.7163ZM84.1458 13.0447C84.1458 13.2913 84.0955 13.5224 83.9949 13.7381C83.8943 13.9539 83.7588 14.1426 83.5886 14.3044C83.426 14.4662 83.2326 14.5972 83.0081 14.6974C82.7837 14.7898 82.5438 14.8361 82.2884 14.8361C82.0407 14.8361 81.8047 14.7898 81.5802 14.6974C81.3635 14.5972 81.1739 14.4662 81.0114 14.3044C80.8489 14.1426 80.7173 13.9539 80.6167 13.7381C80.5238 13.5224 80.4774 13.2913 80.4774 13.0447C80.4774 12.7905 80.5238 12.5516 80.6167 12.3282C80.7173 12.1047 80.8489 11.9121 81.0114 11.7503C81.1739 11.5885 81.3635 11.4614 81.5802 11.3689C81.8047 11.2688 82.0407 11.2187 82.2884 11.2187C82.5438 11.2187 82.7837 11.2688 83.0081 11.3689C83.2326 11.4614 83.426 11.5885 83.5886 11.7503C83.7588 11.9121 83.8943 12.1047 83.9949 12.3282C84.0955 12.5516 84.1458 12.7905 84.1458 13.0447Z" fill="#fff"/>
<path d="M94.4078 19.0082C94.3227 19.116 94.2375 19.2008 94.1524 19.2624C94.075 19.324 93.9589 19.3549 93.8041 19.3549C93.6571 19.3549 93.5139 19.3125 93.3746 19.2277C93.2353 19.1353 93.0689 19.0351 92.8754 18.9273C92.6819 18.8117 92.4497 18.7115 92.1789 18.6268C91.9157 18.5343 91.5868 18.4881 91.1921 18.4881C90.689 18.4881 90.2479 18.5805 89.8687 18.7655C89.4894 18.9427 89.1721 19.2008 88.9167 19.5398C88.6691 19.8788 88.4833 20.291 88.3595 20.7764C88.2357 21.2541 88.1738 21.7973 88.1738 22.4059C88.1738 23.0377 88.2395 23.6002 88.3711 24.0933C88.5104 24.5864 88.7078 25.0024 88.9632 25.3414C89.2186 25.6727 89.5281 25.927 89.8919 26.1042C90.2556 26.2737 90.6658 26.3584 91.1224 26.3584C91.5791 26.3584 91.9467 26.3045 92.2253 26.1966C92.5116 26.0811 92.7516 25.9578 92.9451 25.8268C93.1385 25.6881 93.3049 25.5649 93.4442 25.457C93.5913 25.3414 93.7538 25.2836 93.9318 25.2836C94.164 25.2836 94.3381 25.3722 94.4542 25.5495L95.2785 26.5896C94.9611 26.9594 94.6167 27.2715 94.2453 27.5257C93.8738 27.7723 93.4868 27.9726 93.0844 28.1267C92.6896 28.2731 92.2795 28.3771 91.8538 28.4387C91.4281 28.5004 91.0063 28.5312 90.5884 28.5312C89.8532 28.5312 89.1605 28.3963 88.5104 28.1267C87.8603 27.8493 87.2915 27.4487 86.8039 26.9247C86.3241 26.4008 85.941 25.7613 85.6546 25.0063C85.376 24.2435 85.2367 23.3767 85.2367 22.4059C85.2367 21.5353 85.3605 20.7302 85.6082 19.9905C85.8636 19.2431 86.2351 18.5998 86.7226 18.0605C87.2102 17.5134 87.8139 17.0858 88.5336 16.7776C89.2534 16.4695 90.0815 16.3154 91.018 16.3154C91.908 16.3154 92.6858 16.4579 93.3514 16.743C94.0247 17.028 94.6284 17.4364 95.1624 17.968L94.4078 19.0082Z" fill="#fff"/>
<path d="M99.076 11.184V21.0191H99.6101C99.8035 21.0191 99.9545 20.9921 100.063 20.9382C100.171 20.8842 100.287 20.7841 100.411 20.6377L103.371 16.9972C103.503 16.8431 103.642 16.7237 103.789 16.639C103.936 16.5465 104.13 16.5003 104.37 16.5003H106.993L103.29 20.9035C103.159 21.0653 103.023 21.2156 102.884 21.3542C102.744 21.4852 102.594 21.6008 102.431 21.7009C102.594 21.8165 102.737 21.9514 102.861 22.1054C102.984 22.2595 103.108 22.4252 103.232 22.6024L107.202 28.3578H104.614C104.389 28.3578 104.199 28.3193 104.045 28.2422C103.89 28.1652 103.751 28.0342 103.627 27.8493L100.597 23.3536C100.481 23.1764 100.365 23.0608 100.249 23.0069C100.132 22.953 99.9583 22.926 99.7261 22.926H99.076V28.3578H96.2086V11.184H99.076Z" fill="#fff"/>
<path d="M109.855 11.6463C109.994 11.6463 110.111 11.654 110.203 11.6694C110.296 11.6771 110.378 11.7002 110.447 11.7388C110.525 11.7696 110.598 11.8197 110.668 11.889C110.737 11.9506 110.815 12.0354 110.9 12.1433L119.711 23.3189C119.68 23.0493 119.657 22.7873 119.642 22.5331C119.634 22.2711 119.63 22.0284 119.63 21.805V11.6463H122.381V28.3578H120.768C120.52 28.3578 120.315 28.3193 120.152 28.2422C119.99 28.1652 119.831 28.0265 119.676 27.8262L110.9 16.6967C110.923 16.9433 110.939 17.1898 110.946 17.4364C110.962 17.6752 110.97 17.8948 110.97 18.0951V28.3578H108.218V11.6463H109.855Z" fill="#fff"/>
<path d="M129.761 16.3154C130.651 16.3154 131.456 16.4579 132.176 16.743C132.903 17.028 133.523 17.4325 134.033 17.9565C134.544 18.4804 134.939 19.1199 135.218 19.8749C135.496 20.63 135.635 21.4737 135.635 22.4059C135.635 23.3459 135.496 24.1934 135.218 24.9485C134.939 25.7035 134.544 26.3469 134.033 26.8785C133.523 27.4101 132.903 27.8185 132.176 28.1036C131.456 28.3886 130.651 28.5312 129.761 28.5312C128.871 28.5312 128.063 28.3886 127.335 28.1036C126.608 27.8185 125.984 27.4101 125.466 26.8785C124.955 26.3469 124.557 25.7035 124.27 24.9485C123.992 24.1934 123.852 23.3459 123.852 22.4059C123.852 21.4737 123.992 20.63 124.27 19.8749C124.557 19.1199 124.955 18.4804 125.466 17.9565C125.984 17.4325 126.608 17.028 127.335 16.743C128.063 16.4579 128.871 16.3154 129.761 16.3154ZM129.761 26.3353C130.752 26.3353 131.483 26.004 131.955 25.3414C132.435 24.6788 132.675 23.708 132.675 22.429C132.675 21.1501 132.435 20.1754 131.955 19.5051C131.483 18.8348 130.752 18.4996 129.761 18.4996C128.755 18.4996 128.012 18.8386 127.532 19.5167C127.053 20.187 126.813 21.1578 126.813 22.429C126.813 23.7003 127.053 24.6711 127.532 25.3414C128.012 26.004 128.755 26.3353 129.761 26.3353Z" fill="#fff"/>
<path d="M145.326 28.3578C144.954 28.3578 144.71 28.1845 144.594 27.8377L144.362 26.6936C144.114 26.971 143.855 27.2214 143.584 27.4448C143.313 27.6682 143.019 27.8609 142.702 28.0227C142.392 28.1845 142.056 28.3077 141.692 28.3925C141.336 28.4849 140.949 28.5312 140.531 28.5312C139.881 28.5312 139.285 28.3963 138.743 28.1267C138.202 27.857 137.733 27.4679 137.339 26.9594C136.952 26.4432 136.65 25.8076 136.433 25.0525C136.224 24.2974 136.12 23.4345 136.12 22.4637C136.12 21.5854 136.24 20.7687 136.48 20.0136C136.72 19.2586 137.064 18.6037 137.513 18.0489C137.962 17.4942 138.5 17.0627 139.126 16.7545C139.753 16.4386 140.458 16.2807 141.239 16.2807C141.905 16.2807 142.474 16.3886 142.946 16.6043C143.418 16.8123 143.84 17.0935 144.211 17.4479V11.184H147.079V28.3578H145.326ZM141.506 26.266C142.102 26.266 142.609 26.1427 143.027 25.8962C143.445 25.6496 143.84 25.299 144.211 24.8445V19.5282C143.886 19.1353 143.53 18.8579 143.143 18.6961C142.764 18.5343 142.354 18.4534 141.913 18.4534C141.479 18.4534 141.085 18.5343 140.729 18.6961C140.38 18.8579 140.082 19.1045 139.835 19.4358C139.595 19.7594 139.409 20.1754 139.277 20.6839C139.146 21.1847 139.08 21.778 139.08 22.4637C139.08 23.1571 139.134 23.7465 139.243 24.2319C139.359 24.7096 139.521 25.1026 139.73 25.4108C139.939 25.7112 140.194 25.9308 140.496 26.0695C140.798 26.2005 141.135 26.266 141.506 26.266Z" fill="#fff"/>
<path d="M154.179 16.3154C154.93 16.3154 155.618 16.4348 156.245 16.6736C156.88 16.9125 157.426 17.263 157.882 17.7253C158.339 18.1799 158.695 18.7423 158.95 19.4127C159.206 20.0753 159.333 20.8342 159.333 21.6894C159.333 21.9051 159.322 22.0862 159.299 22.2326C159.283 22.3713 159.248 22.483 159.194 22.5677C159.148 22.6448 159.082 22.7026 158.997 22.7411C158.912 22.7719 158.803 22.7873 158.672 22.7873H151.312C151.397 24.0047 151.726 24.8984 152.298 25.4686C152.871 26.0387 153.629 26.3238 154.574 26.3238C155.038 26.3238 155.437 26.2698 155.769 26.162C156.11 26.0541 156.404 25.9347 156.652 25.8037C156.907 25.6727 157.128 25.5533 157.313 25.4454C157.507 25.3376 157.693 25.2836 157.871 25.2836C157.987 25.2836 158.087 25.3068 158.172 25.353C158.258 25.3992 158.331 25.4647 158.393 25.5495L159.229 26.5896C158.912 26.9594 158.556 27.2715 158.161 27.5257C157.766 27.7723 157.352 27.9726 156.919 28.1267C156.493 28.2731 156.056 28.3771 155.607 28.4387C155.166 28.5004 154.736 28.5312 154.318 28.5312C153.49 28.5312 152.72 28.3963 152.008 28.1267C151.296 27.8493 150.677 27.4448 150.151 26.9132C149.624 26.3739 149.21 25.7113 148.908 24.9254C148.607 24.1318 148.456 23.2149 148.456 22.1748C148.456 21.3658 148.587 20.6069 148.85 19.898C149.114 19.1815 149.489 18.5613 149.977 18.0374C150.472 17.5057 151.072 17.0858 151.776 16.7776C152.488 16.4695 153.289 16.3154 154.179 16.3154ZM154.237 18.361C153.401 18.361 152.747 18.596 152.275 19.0659C151.803 19.5359 151.501 20.2024 151.37 21.0653H156.756C156.756 20.6955 156.706 20.3488 156.605 20.0252C156.505 19.6939 156.35 19.4049 156.141 19.1584C155.932 18.9118 155.669 18.7192 155.351 18.5805C155.034 18.4342 154.663 18.361 154.237 18.361Z" fill="#fff"/>
<g clip-path="url(#clip0_8022_26414)">
<path fill-rule="evenodd" clip-rule="evenodd" d="M20 32.5C23.3956 32.5 26.4749 31.146 28.7277 28.9486C28.7894 28.8883 28.8883 28.8883 28.9493 28.9493L34.1422 34.1421L39.532 39.5319C39.6486 39.6485 39.5285 39.8428 39.3721 39.7906L30.7705 36.9234C30.726 36.9086 30.6771 36.9146 30.6374 36.9396C27.5563 38.8784 23.9091 40 20 40C8.9543 40 0 31.0457 0 20C0 8.95427 8.9543 -3.05176e-05 20 -3.05176e-05C31.0457 -3.05176e-05 40 8.95427 40 20C40 24.7178 38.3665 29.054 35.6342 32.474C35.5764 32.5464 35.4686 32.5519 35.4031 32.4864L24.843 21.9263C24.7264 21.8097 24.8465 21.6154 25.0029 21.6676L31.7135 23.9045C31.7954 23.9317 31.884 23.8875 31.9102 23.8053C32.2933 22.6055 32.5 21.3269 32.5 20C32.5 13.0964 26.9036 7.49997 20 7.49997C13.0964 7.49997 7.5 13.0964 7.5 20C7.5 26.9035 13.0964 32.5 20 32.5Z" fill="#00A4D6"/>
</g>
<defs>
<clipPath id="clip0_8022_26414">
<rect width="40" height="40" fill="white"/>
</clipPath>
</defs>
</svg>
